<mxfile host="app.diagrams.net" modified="2022-12-13T16:16:33.297Z" agent="5.0 (Windows NT 10.0; Win64; x64) AppleWebKit/537.36 (KHTML, like Gecko) Chrome/107.0.0.0 Safari/537.36 OPR/93.0.0.0" version="20.6.2" etag="dTmluA9HELkrjEyrX_TS" type="github">
  <diagram id="LlODm5-BMOExsmAHzhm0" name="Sivu-1">
    <mxGraphModel dx="742" dy="438" grid="1" gridSize="10" guides="1" tooltips="1" connect="1" arrows="1" fold="1" page="1" pageScale="1" pageWidth="827" pageHeight="1169" math="0" shadow="0">
      <root>
        <mxCell id="0" />
        <mxCell id="1" parent="0" />
        <mxCell id="OCRYSsrLa6ufEmy_kufD-3" value="" style="edgeStyle=orthogonalEdgeStyle;rounded=0;orthogonalLoop=1;jettySize=auto;html=1;fontSize=18;" edge="1" parent="1" source="OCRYSsrLa6ufEmy_kufD-1" target="OCRYSsrLa6ufEmy_kufD-2">
          <mxGeometry relative="1" as="geometry" />
        </mxCell>
        <mxCell id="OCRYSsrLa6ufEmy_kufD-1" value="&lt;font style=&quot;font-size: 18px;&quot;&gt;Aloitus&lt;/font&gt;" style="ellipse;whiteSpace=wrap;html=1;" vertex="1" parent="1">
          <mxGeometry x="60" y="10" width="190" height="80" as="geometry" />
        </mxCell>
        <mxCell id="OCRYSsrLa6ufEmy_kufD-5" value="" style="edgeStyle=orthogonalEdgeStyle;rounded=0;orthogonalLoop=1;jettySize=auto;html=1;fontSize=18;" edge="1" parent="1" source="OCRYSsrLa6ufEmy_kufD-2" target="OCRYSsrLa6ufEmy_kufD-4">
          <mxGeometry relative="1" as="geometry" />
        </mxCell>
        <mxCell id="OCRYSsrLa6ufEmy_kufD-2" value="Lue 1. luku" style="shape=parallelogram;perimeter=parallelogramPerimeter;whiteSpace=wrap;html=1;fixedSize=1;fontSize=18;" vertex="1" parent="1">
          <mxGeometry x="70" y="140" width="170" height="60" as="geometry" />
        </mxCell>
        <mxCell id="OCRYSsrLa6ufEmy_kufD-7" value="" style="edgeStyle=orthogonalEdgeStyle;rounded=0;orthogonalLoop=1;jettySize=auto;html=1;fontSize=18;" edge="1" parent="1" source="OCRYSsrLa6ufEmy_kufD-4" target="OCRYSsrLa6ufEmy_kufD-6">
          <mxGeometry relative="1" as="geometry" />
        </mxCell>
        <mxCell id="OCRYSsrLa6ufEmy_kufD-4" value="Lue 2. luku" style="shape=parallelogram;perimeter=parallelogramPerimeter;whiteSpace=wrap;html=1;fixedSize=1;fontSize=18;" vertex="1" parent="1">
          <mxGeometry x="70" y="240" width="170" height="60" as="geometry" />
        </mxCell>
        <mxCell id="OCRYSsrLa6ufEmy_kufD-9" value="" style="edgeStyle=orthogonalEdgeStyle;rounded=0;orthogonalLoop=1;jettySize=auto;html=1;fontSize=18;" edge="1" parent="1" source="OCRYSsrLa6ufEmy_kufD-6" target="OCRYSsrLa6ufEmy_kufD-8">
          <mxGeometry relative="1" as="geometry" />
        </mxCell>
        <mxCell id="OCRYSsrLa6ufEmy_kufD-6" value="Summaa luvut" style="rounded=0;whiteSpace=wrap;html=1;fontSize=18;" vertex="1" parent="1">
          <mxGeometry x="95" y="350" width="120" height="60" as="geometry" />
        </mxCell>
        <mxCell id="OCRYSsrLa6ufEmy_kufD-11" value="" style="edgeStyle=orthogonalEdgeStyle;rounded=0;orthogonalLoop=1;jettySize=auto;html=1;fontSize=18;" edge="1" parent="1" source="OCRYSsrLa6ufEmy_kufD-8" target="OCRYSsrLa6ufEmy_kufD-10">
          <mxGeometry relative="1" as="geometry" />
        </mxCell>
        <mxCell id="OCRYSsrLa6ufEmy_kufD-16" value="" style="edgeStyle=orthogonalEdgeStyle;rounded=0;orthogonalLoop=1;jettySize=auto;html=1;fontSize=18;" edge="1" parent="1" source="OCRYSsrLa6ufEmy_kufD-8" target="OCRYSsrLa6ufEmy_kufD-14">
          <mxGeometry relative="1" as="geometry" />
        </mxCell>
        <mxCell id="OCRYSsrLa6ufEmy_kufD-8" value="Summa &amp;lt; 100" style="rhombus;whiteSpace=wrap;html=1;fontSize=18;" vertex="1" parent="1">
          <mxGeometry x="85" y="485" width="140" height="100" as="geometry" />
        </mxCell>
        <mxCell id="OCRYSsrLa6ufEmy_kufD-18" value="" style="edgeStyle=orthogonalEdgeStyle;rounded=0;orthogonalLoop=1;jettySize=auto;html=1;fontSize=18;" edge="1" parent="1" source="OCRYSsrLa6ufEmy_kufD-10" target="OCRYSsrLa6ufEmy_kufD-12">
          <mxGeometry relative="1" as="geometry" />
        </mxCell>
        <mxCell id="OCRYSsrLa6ufEmy_kufD-10" value="Tulosta konsoliin (console.log) &quot;Lukujen summa on alle 100&quot;" style="shape=parallelogram;perimeter=parallelogramPerimeter;whiteSpace=wrap;html=1;fixedSize=1;fontSize=18;" vertex="1" parent="1">
          <mxGeometry x="305" y="505" width="295" height="60" as="geometry" />
        </mxCell>
        <mxCell id="OCRYSsrLa6ufEmy_kufD-12" value="Loppu" style="ellipse;whiteSpace=wrap;html=1;fontSize=18;" vertex="1" parent="1">
          <mxGeometry x="337.5" y="655" width="230" height="80" as="geometry" />
        </mxCell>
        <mxCell id="OCRYSsrLa6ufEmy_kufD-13" value="T" style="text;html=1;align=center;verticalAlign=middle;resizable=0;points=[];autosize=1;strokeColor=none;fillColor=none;fontSize=18;" vertex="1" parent="1">
          <mxGeometry x="250" y="490" width="30" height="40" as="geometry" />
        </mxCell>
        <mxCell id="OCRYSsrLa6ufEmy_kufD-17" value="" style="edgeStyle=orthogonalEdgeStyle;rounded=0;orthogonalLoop=1;jettySize=auto;html=1;fontSize=18;" edge="1" parent="1" source="OCRYSsrLa6ufEmy_kufD-14" target="OCRYSsrLa6ufEmy_kufD-12">
          <mxGeometry relative="1" as="geometry" />
        </mxCell>
        <mxCell id="OCRYSsrLa6ufEmy_kufD-14" value="Tulosta konsoliin: &quot;Lukujen summa on liian suuri, jotta pystyisin laskemaan niitÃ¤!&quot;" style="shape=parallelogram;perimeter=parallelogramPerimeter;whiteSpace=wrap;html=1;fixedSize=1;fontSize=18;" vertex="1" parent="1">
          <mxGeometry x="30" y="640" width="250" height="110" as="geometry" />
        </mxCell>
        <mxCell id="OCRYSsrLa6ufEmy_kufD-19" value="F" style="text;html=1;align=center;verticalAlign=middle;resizable=0;points=[];autosize=1;strokeColor=none;fillColor=none;fontSize=18;" vertex="1" parent="1">
          <mxGeometry x="115" y="585" width="30" height="40" as="geometry" />
        </mxCell>
      </root>
    </mxGraphModel>
  </diagram>
</mxfile>
